<?xml version="1.0" encoding="utf-8"?><svg fill="white" stroke="white" stroke-width="2" version="1.1" id="Layer_1" xmlns="http://www.w3.org/2000/svg" xmlns:xlink="http://www.w3.org/1999/xlink" x="0px" y="0px" viewBox="0 0 121.75 122.88" style="enable-background:new 0 0 121.75 122.88" xml:space="preserve"><g><path d="M17.38,19.5c1.66-0.44,3.23-0.82,4.7-1.18c1.71-0.42,3.28-0.8,4.74-1.22c0.27,1.53,0.64,3.03,1.1,4.49 c-1.21,1.19-1.96,2.85-1.96,4.68c0,3.62,2.94,6.56,6.56,6.56c0.46,0,0.9-0.05,1.34-0.14c1.66,2.08,3.56,3.97,5.65,5.62 c-0.12,0.49-0.18,1.01-0.18,1.54c0,3.62,2.94,6.56,6.56,6.56c1.97,0,3.74-0.87,4.94-2.24l-0.06,0.07c1.12,0.35,2.27,0.64,3.44,0.87 L43.86,55.46L42.32,57l18.56,18.56L79.43,57L67.58,45.14c1.17-0.23,2.33-0.51,3.45-0.85c1.2,1.3,2.92,2.12,4.82,2.12 c3.62,0,6.56-2.94,6.56-6.56c0-0.47-0.05-0.93-0.14-1.37c0.24-0.19,0.49-0.38,0.73-0.58c1.88-1.54,3.59-3.27,5.11-5.17 c0.36,0.06,0.73,0.09,1.11,0.09c3.63,0,6.56-2.94,6.56-6.56c0-1.73-0.67-3.3-1.76-4.48c0.42-1.29,0.77-2.61,1.03-3.96 c0.02-0.09,0.03-0.18,0.04-0.27l13.36,3.49c4.07,1.06,5.2,0.87,8.32,3.85c7.64,7.3,4.84,18.77,2.39,28.86 c-0.42,1.71-0.82,3.37-1.17,5.01c-2.33,11.09-5.3,21.92-9.08,32.42c-3.78,10.5-8.38,20.66-13.97,30.38 c-0.48,0.84-1.36,1.31-2.26,1.31v0.01H28.87c-1.03,0-1.93-0.6-2.35-1.47c-3.79-6.56-7.28-13.3-10.4-20.25 c-3.15-7.01-5.92-14.19-8.23-21.58c-1.55-4.93-2.91-10-4.06-15.23c-1.14-5.19-2.07-10.48-2.76-15.9l-0.18-1.37 c-1.24-9.54-2.57-19.76,6.67-24.47C10.26,21.23,14.34,20.31,17.38,19.5L17.38,19.5z M30.99,15.6c4.55-2.08,8.08-5.64,11.76-14.03 c0.43-0.98,1.38-1.57,2.39-1.57V0h31.91c1.19,0,2.2,0.8,2.51,1.89c1.23,3.43,2.69,6.45,4.49,8.92c1.69,2.33,3.68,4.18,6.06,5.44 l0.84,0.22c-0.08,0.16-0.13,0.33-0.17,0.52c-0.19,0.94-0.41,1.86-0.68,2.76c-0.29-0.04-0.58-0.06-0.88-0.06 c-3.62,0-6.56,2.94-6.56,6.56c0,1.65,0.61,3.15,1.61,4.3c-1.21,1.45-2.56,2.78-4.02,3.98c-0.08,0.07-0.17,0.14-0.25,0.21 c-1.13-0.92-2.57-1.47-4.14-1.47c-3.62,0-6.56,2.94-6.56,6.56c0,0.14,0.01,0.28,0.01,0.42c-1.8,0.51-3.66,0.86-5.58,1.03 c-1.91,0.13-3.8,0.09-5.68-0.02c-1.92-0.19-3.8-0.55-5.6-1.08c-0.03,0.65,0.01-0.16,0.01-0.35c0-3.63-2.94-6.56-6.56-6.56 c-1.51,0-2.9,0.51-4.01,1.37l0,0c-1.56-1.27-2.99-2.68-4.28-4.23l-0.01,0.01c0.93-1.13,1.48-2.58,1.48-4.16 c0-3.63-2.94-6.56-6.56-6.56c-0.21,0-0.42,0.01-0.63,0.03l0,0C31.51,18.39,31.2,17.01,30.99,15.6L30.99,15.6L30.99,15.6z M89.22,23.11c1.74,0,3.15,1.41,3.15,3.15c0,1.74-1.41,3.15-3.15,3.15c-1.74,0-3.15-1.41-3.15-3.15 C86.07,24.52,87.48,23.11,89.22,23.11L89.22,23.11z M32.53,23.11c1.74,0,3.15,1.41,3.15,3.15c0,1.74-1.41,3.15-3.15,3.15 c-1.74,0-3.15-1.41-3.15-3.15C29.38,24.52,30.79,23.11,32.53,23.11L32.53,23.11z M45.9,36.69c1.74,0,3.15,1.41,3.15,3.15 c0,1.74-1.41,3.15-3.15,3.15c-1.74,0-3.15-1.41-3.15-3.15C42.75,38.1,44.16,36.69,45.9,36.69L45.9,36.69z M75.86,36.69 c1.74,0,3.15,1.41,3.15,3.15c0,1.74-1.41,3.15-3.15,3.15c-1.74,0-3.15-1.41-3.15-3.15C72.71,38.1,74.12,36.69,75.86,36.69 L75.86,36.69z M60.88,53.27c2.06,0,3.73,1.67,3.73,3.73c0,2.06-1.67,3.73-3.73,3.73c-2.06,0-3.73-1.67-3.73-3.73 C57.14,54.94,58.82,53.27,60.88,53.27L60.88,53.27z M50.22,57l10.66-10.66L71.54,57L60.88,67.66L50.22,57L50.22,57z"/></g></svg>